<?xml version="1.0" encoding="utf-8"?>
<!-- Generator: Adobe Illustrator 24.1.1, SVG Export Plug-In . SVG Version: 6.00 Build 0)  -->
<svg version="1.1" id="Layer_1" xmlns="http://www.w3.org/2000/svg" xmlns:xlink="http://www.w3.org/1999/xlink" x="0px" y="0px"
	 viewBox="0 0 512 512" style="enable-background:new 0 0 512 512;" xml:space="preserve">
<g id="XMLID_6_">
	<path id="XMLID_11_" fill="black" d="M256,128c-70.4,0-128,57.6-128,128s57.6,128,128,128s128-57.6,128-128S326.4,128,256,128z
		 M256,0C114.3,0,0,114.3,0,256s114.3,256,256,256s256-114.3,256-256S397.7,0,256,0z M256,460.8c-113.4,0-204.8-91.4-204.8-204.8
		S142.6,51.2,256,51.2S460.8,142.6,460.8,256S369.4,460.8,256,460.8z"/>
</g>
</svg>
